<svg width="512" height="512" viewBox="0 0 512 512" fill="none" xmlns="http://www.w3.org/2000/svg">
  <rect width="512" height="512" rx="112" fill="#1F6F4A"/>
  <path d="M128 150C128 133.431 141.431 120 158 120H354C370.569 120 384 133.431 384 150V354C384 370.569 370.569 384 354 384H158C141.431 384 128 370.569 128 354V150Z" fill="#FFFDF8"/>
  <path d="M166 178H346" stroke="#17211C" stroke-width="22" stroke-linecap="round"/>
  <path d="M166 252H346" stroke="#17211C" stroke-width="22" stroke-linecap="round"/>
  <path d="M166 326H346" stroke="#17211C" stroke-width="22" stroke-linecap="round"/>
  <circle cx="208" cy="252" r="34" fill="#8BE0C8"/>
  <path d="M208 218C226.778 218 242 233.222 242 252C242 278 208 310 208 310C208 310 174 278 174 252C174 233.222 189.222 218 208 218Z" fill="#1F6F4A"/>
  <circle cx="208" cy="251" r="11" fill="#FFFDF8"/>
  <path d="M276 206H334" stroke="#F2C94C" stroke-width="18" stroke-linecap="round"/>
  <path d="M276 282H334" stroke="#F2C94C" stroke-width="18" stroke-linecap="round"/>
</svg>
